<svg xmlns="http://www.w3.org/2000/svg" width="32" height="37" fill="none"><g clip-path="url(#a)"><path fill="#fff" d="M28.571 2.286H3.43A3.429 3.429 0 0 0 0 5.714v25.143a3.428 3.428 0 0 0 3.429 3.429h9.803v-10.88h-4.5v-5.12h4.5v-3.903c0-4.44 2.643-6.892 6.69-6.892 1.94 0 3.967.346 3.967.346v4.357h-2.234c-2.2 0-2.887 1.366-2.887 2.767v3.325h4.913l-.786 5.12h-4.127v10.88h9.803A3.429 3.429 0 0 0 32 30.857V5.714a3.428 3.428 0 0 0-3.429-3.428Z"/></g><defs><clipPath id="a"><path fill="#fff" d="M0 0h32v36.571H0z"/></clipPath></defs></svg>