<svg width="86" height="86" viewBox="0 0 86 86" fill="none" xmlns="http://www.w3.org/2000/svg">
<path d="M20.9333 9.86662C13.3333 12.6666 7.19998 18 3.99998 24.6666C1.59998 29.6 1.19998 32.5333 1.59998 40C2.26664 53.6 5.99998 58 25.6 69.4666C43.7333 80 40.2666 80.9333 50.9333 62C60.4 45.2 61.6 39.7333 58.4 28.8C56 20.9333 46.2666 11.6 38.4 9.59995C30.5333 7.59995 27.3333 7.59995 20.9333 9.86662ZM36 32.6666C36.9333 33.7333 37.7333 36.1333 37.7333 38C37.7333 42.5333 35.0666 45.3333 30.9333 45.3333C24 45.3333 20.1333 37.4666 24.8 32.8C27.4666 30.1333 33.8666 30 36 32.6666Z" fill="#39031F"/>
<path d="M48.2666 8.9333C45.3333 9.46663 45.4666 9.73329 50.4 13.3333C56.6666 17.8666 60.5333 23.8666 62.6666 32.1333C64.8 40.4 62.9333 46.8 53.8666 62.9333C49.8666 70 46.6666 76 46.6666 76.5333C46.6666 77.4666 68.8 64.6666 74.4 60.5333C86.9333 50.9333 88.1333 30 76.8 17.6C70.8 10.9333 57.4666 6.9333 48.2666 8.9333Z" fill="#39031F"/>
</svg>
