<svg xmlns="http://www.w3.org/2000/svg" width="86" height="73" fill="none"><path fill="#03173D" d="M26.638 71.734C9.232 46.227 6 43.609 6 34.234c0-12.84 10.298-23.25 23-23.25 12.703 0 23 10.41 23 23.25 0 9.375-3.23 11.993-20.636 37.5a2.859 2.859 0 0 1-4.727 0ZM29 43.922c5.293 0 9.584-4.337 9.584-9.687S34.294 24.547 29 24.547c-5.293 0-9.583 4.338-9.583 9.688 0 5.35 4.29 9.687 9.583 9.687Z"/><path fill="#03173D" d="m68.815 25.725-1.102 1.927a1.658 1.658 0 0 1-2.03.728 14.838 14.838 0 0 1-4.313-2.507 1.677 1.677 0 0 1-.376-2.116l1.102-1.927a11.644 11.644 0 0 1-2.137-3.692h-2.217a1.66 1.66 0 0 1-1.64-1.388 15.227 15.227 0 0 1 0-5 1.672 1.672 0 0 1 1.64-1.402h2.217a11.643 11.643 0 0 1 2.137-3.692l-1.102-1.927c-.403-.701-.255-1.604.376-2.116A15.017 15.017 0 0 1 65.684.106a1.658 1.658 0 0 1 2.029.728l1.102 1.927a11.906 11.906 0 0 1 4.26 0L74.175.834a1.658 1.658 0 0 1 2.03-.728 14.84 14.84 0 0 1 4.313 2.507c.618.512.78 1.415.376 2.116l-1.102 1.927a11.643 11.643 0 0 1 2.137 3.692h2.217c.806 0 1.505.58 1.64 1.388a15.227 15.227 0 0 1 0 5 1.672 1.672 0 0 1-1.64 1.402H81.93a11.644 11.644 0 0 1-2.137 3.692l1.102 1.928c.403.7.255 1.603-.376 2.115a15.017 15.017 0 0 1-4.314 2.507 1.658 1.658 0 0 1-2.029-.728l-1.102-1.927a11.91 11.91 0 0 1-4.26 0Zm-1.411-7.924c5.173 3.989 11.072-1.927 7.095-7.116-5.174-4.002-11.073 1.927-7.095 7.116ZM51.91 38.54l4.529 2.264c1.357.782 1.948 2.44 1.41 3.922-1.195 3.261-3.547 6.253-5.724 8.868a3.206 3.206 0 0 1-4.071.714l-3.91-2.264a23.068 23.068 0 0 1-7.378 4.272v4.528c0 1.563-1.115 2.911-2.647 3.18a30.132 30.132 0 0 1-10.199 0 3.235 3.235 0 0 1-2.688-3.18v-4.528a23.32 23.32 0 0 1-7.377-4.272l-3.91 2.25a3.209 3.209 0 0 1-4.072-.714C3.697 50.967 1.4 47.975.203 44.727a3.256 3.256 0 0 1 1.41-3.922l4.475-2.264a23.413 23.413 0 0 1 0-8.544L1.614 27.72A3.218 3.218 0 0 1 .203 23.81c1.196-3.26 3.494-6.253 5.67-8.867.995-1.2 2.715-1.496 4.072-.714l3.91 2.264a23.068 23.068 0 0 1 7.378-4.272V7.68c0-1.55 1.101-2.897 2.633-3.167A30.557 30.557 0 0 1 34.08 4.5a3.235 3.235 0 0 1 2.687 3.18v4.528a23.319 23.319 0 0 1 7.377 4.272l3.91-2.264a3.209 3.209 0 0 1 4.072.714c2.177 2.615 4.462 5.607 5.657 8.868.538 1.469.014 3.127-1.343 3.922l-4.529 2.264c.524 2.83.524 5.727 0 8.557Zm-15.802 2.844c7.955-10.377-3.857-22.223-14.204-14.245-7.955 10.377 3.857 22.223 14.204 14.245Zm32.707 24.622-1.102 1.927a1.659 1.659 0 0 1-2.03.727 14.84 14.84 0 0 1-4.313-2.506 1.677 1.677 0 0 1-.376-2.116l1.102-1.927a11.641 11.641 0 0 1-2.137-3.693h-2.217a1.66 1.66 0 0 1-1.64-1.388 15.227 15.227 0 0 1 0-5 1.672 1.672 0 0 1 1.64-1.401h2.217a11.641 11.641 0 0 1 2.137-3.693l-1.102-1.927c-.403-.7-.255-1.604.376-2.116a15.019 15.019 0 0 1 4.314-2.506 1.659 1.659 0 0 1 2.029.727l1.102 1.927a11.905 11.905 0 0 1 4.26 0l1.101-1.927a1.659 1.659 0 0 1 2.03-.727 14.841 14.841 0 0 1 4.313 2.506c.618.512.78 1.415.376 2.116l-1.102 1.927a11.642 11.642 0 0 1 2.137 3.693h2.217c.806 0 1.505.58 1.64 1.388a15.227 15.227 0 0 1 0 5 1.672 1.672 0 0 1-1.64 1.401H81.93a11.642 11.642 0 0 1-2.137 3.693l1.102 1.927c.403.7.255 1.604-.376 2.116a15.019 15.019 0 0 1-4.314 2.506 1.659 1.659 0 0 1-2.029-.727l-1.102-1.927a11.905 11.905 0 0 1-4.26 0Zm-1.411-7.938c5.173 3.989 11.072-1.927 7.095-7.116-5.174-3.989-11.073 1.927-7.095 7.116Z"/></svg>