<svg xmlns="http://www.w3.org/2000/svg" width="32" height="37" fill="none"><g clip-path="url(#a)"><path fill="#fff" d="M16.007 10.072A8.194 8.194 0 0 0 7.8 18.279a8.194 8.194 0 0 0 8.207 8.207 8.194 8.194 0 0 0 8.207-8.207 8.194 8.194 0 0 0-8.207-8.207Zm0 13.543a5.345 5.345 0 0 1-5.336-5.336 5.34 5.34 0 0 1 5.336-5.336 5.34 5.34 0 0 1 5.336 5.336c0 2.943-2.4 5.335-5.336 5.335Zm10.457-13.88a1.91 1.91 0 0 1-1.914 1.915 1.914 1.914 0 1 1 1.914-1.914ZM31.9 11.68c-.121-2.564-.707-4.836-2.586-6.707-1.871-1.872-4.143-2.457-6.707-2.586-2.643-.15-10.564-.15-13.207 0-2.557.121-4.829.707-6.707 2.579C.814 6.835.236 9.107.107 11.672c-.15 2.643-.15 10.564 0 13.207.122 2.564.707 4.835 2.586 6.707 1.878 1.871 4.143 2.457 6.707 2.586 2.643.15 10.564.15 13.207 0 2.564-.122 4.836-.707 6.707-2.586 1.872-1.871 2.457-4.143 2.586-6.707.15-2.643.15-10.557 0-13.2Zm-3.414 16.035a5.402 5.402 0 0 1-3.043 3.043c-2.107.836-7.107.643-9.436.643-2.328 0-7.336.186-9.436-.643a5.402 5.402 0 0 1-3.042-3.043c-.836-2.107-.643-7.107-.643-9.435 0-2.329-.186-7.336.643-9.436A5.402 5.402 0 0 1 6.57 5.8c2.108-.835 7.108-.643 9.436-.643 2.329 0 7.336-.185 9.436.643a5.402 5.402 0 0 1 3.043 3.043c.835 2.107.643 7.107.643 9.436 0 2.328.192 7.335-.643 9.436Z"/></g><defs><clipPath id="a"><path fill="#fff" d="M0 0h32v36.571H0z"/></clipPath></defs></svg>