<svg xmlns="http://www.w3.org/2000/svg" width="44" height="32" fill="none"><path fill="#5D1B62" d="M8 4a4 4 0 1 1-8 0 4 4 0 0 1 8 0Z"/><path fill="#6F9712" d="M8 16a4 4 0 1 1-8 0 4 4 0 0 1 8 0Z"/><path fill="#F1047C" d="M8 28a4 4 0 1 1-8 0 4 4 0 0 1 8 0Z"/><path fill="#F2047E" d="M20 4a4 4 0 1 1-8 0 4 4 0 0 1 8 0Z"/><path fill="#11A9AC" d="M20 16a4 4 0 1 1-8 0 4 4 0 0 1 8 0Z"/><path fill="#ED7F08" d="M20 28a4 4 0 1 1-8 0 4 4 0 0 1 8 0Z"/><path fill="#C56C06" d="M32 4a4 4 0 1 1-8 0 4 4 0 0 1 8 0Z"/><path fill="#5055EF" d="M32 16a4 4 0 1 1-8 0 4 4 0 0 1 8 0Z"/><path fill="#719516" d="M32 28a4 4 0 1 1-8 0 4 4 0 0 1 8 0Z"/><path fill="#421C45" d="M44 4a4 4 0 1 1-8 0 4 4 0 0 1 8 0Z"/><path fill="#EE7E12" d="M44 16a4 4 0 1 1-8 0 4 4 0 0 1 8 0Z"/><path fill="#A51FB1" d="M44 28a4 4 0 1 1-8 0 4 4 0 0 1 8 0Z"/></svg>