<svg xmlns="http://www.w3.org/2000/svg" width="44" height="32" fill="none"><path fill="#AF68EA" d="M8 4a4 4 0 1 1-8 0 4 4 0 0 1 8 0ZM8 16a4 4 0 1 1-8 0 4 4 0 0 1 8 0ZM8 28a4 4 0 1 1-8 0 4 4 0 0 1 8 0ZM20 4a4 4 0 1 1-8 0 4 4 0 0 1 8 0ZM20 16a4 4 0 1 1-8 0 4 4 0 0 1 8 0ZM20 28a4 4 0 1 1-8 0 4 4 0 0 1 8 0ZM32 4a4 4 0 1 1-8 0 4 4 0 0 1 8 0ZM32 16a4 4 0 1 1-8 0 4 4 0 0 1 8 0ZM32 28a4 4 0 1 1-8 0 4 4 0 0 1 8 0ZM44 4a4 4 0 1 1-8 0 4 4 0 0 1 8 0ZM44 16a4 4 0 1 1-8 0 4 4 0 0 1 8 0ZM44 28a4 4 0 1 1-8 0 4 4 0 0 1 8 0Z"/></svg>