<svg xmlns="http://www.w3.org/2000/svg" width="543" height="279" fill="none"><path stroke="#000" stroke-width="2" d="m518 46.5 23.5-35"/><circle cx="27" cy="27" r="12" fill="#931D9D" stroke="#000" stroke-width="2"/><circle cx="281.266" cy="68.266" r="13.5" fill="#931D9D" stroke="#000"/><circle cx="281.266" cy="68.266" r="24" stroke="#000" stroke-width="2" transform="rotate(12.143 281.266 68.266)"/><path stroke="#000" stroke-width="2" d="M502.6 71.51c6.355 4.508 15.208 3.403 20.241-2.705 5.269-6.394 4.357-15.847-2.037-21.116-6.393-5.268-15.847-4.356-21.115 2.038-5.074 6.157-4.415 15.154 1.353 20.516l-64.107 95.465 1.661 1.115L502.6 71.51Z"/><circle cx="511.266" cy="59.266" r="7.5" fill="#931D9D" stroke="#000"/><circle cx="479.266" cy="270.266" r="3" fill="#444"/><circle cx="491.266" cy="270.266" r="3" fill="#444"/><circle cx="503.266" cy="270.266" r="3" fill="#444"/><path fill="#931D9D" stroke="#000" stroke-width="2" d="M50.942 31.195c2.101-12.601-6.085-24.737-18.705-27.409C19.27 1.04 6.532 9.326 3.787 22.294 1.04 35.261 9.326 47.999 22.293 50.745c12.658 2.68 25.098-5.152 28.238-17.59l207.585 31.1.297-1.978L50.942 31.195ZM23.74 43.914C14.546 41.967 8.67 32.935 10.617 23.74c1.947-9.194 10.979-15.07 20.174-13.123 9.194 1.947 15.07 10.979 13.123 20.174-1.947 9.194-10.979 15.07-20.174 13.123Z"/><circle cx="424.265" cy="213.266" r="22.5" fill="#931D9D" stroke="#000"/><path fill="#931D9D" stroke="#000" stroke-width="2" d="M398.268 171.731c-22.42 14.017-29.727 43.429-16.245 66.366 13.714 23.33 43.744 31.125 67.074 17.411 23.329-13.713 31.125-43.743 17.411-67.073-13.59-23.119-43.203-30.983-66.44-17.778L300.932 82.02l-1.333 1.491 98.669 88.22Zm42.711 69.968c-15.703 9.231-35.916 3.984-45.146-11.72-9.231-15.703-3.984-35.916 11.719-45.146 15.703-9.231 35.916-3.984 45.147 11.719 9.23 15.704 3.983 35.916-11.72 45.147Z"/></svg>