<svg width="68" height="72" viewBox="0 0 68 72" fill="none" xmlns="http://www.w3.org/2000/svg">
<path d="M17.2312 2.16719C5.93903 7.3 -1.01879 19.3906 0.121837 31.9375C0.920274 41.2906 3.8859 45.8531 17.3453 59.3125L29.4359 71.2891L41.5265 59.3125C55.214 45.7391 59.0922 39.3516 59.0922 30.1125C59.0922 12.775 46.5453 -1.86265e-06 29.55 -1.86265e-06C24.6453 -1.86265e-06 20.3109 0.798436 17.2312 2.16719ZM51.9062 12.8891C58.5218 22.6984 58.864 34.9031 52.7047 44.7125C49.625 49.6172 49.1687 49.7312 46.4312 47.2219C44.6062 45.5109 44.6062 45.2828 46.6593 41.6328C51.7922 32.9641 51.9062 24.7516 46.8875 17.4516C44.264 13.6875 44.264 13.3453 46.089 11.2922C48.7125 8.44062 48.9406 8.55469 51.9062 12.8891ZM43.0093 19.6187C46.7734 25.6641 46.5453 33.9906 42.6672 39.3516C41.0703 41.5187 40.9562 41.5187 38.789 39.5797C36.6218 37.6406 36.6218 37.1844 38.2187 33.0781C39.8156 29.2 39.8156 28.4016 38.1047 24.9797C36.3937 21.5578 36.3937 21.1016 38.1047 19.1625C40.614 16.5391 41.0703 16.5391 43.0093 19.6187ZM34.7968 24.1812C39.0172 28.0594 38.1047 33.1922 32.7437 36.0437C29.7781 37.5266 29.0937 37.5266 26.1281 36.0437C20.8812 33.3062 19.9687 28.5156 23.9609 24.2953C27.0406 20.9875 31.375 20.9875 34.7968 24.1812Z" fill="white"/>
<path d="M54.8718 3.53619C53.8453 4.56275 54.3015 6.04556 56.6968 9.5815C60.3468 15.0565 61.2593 17.1096 62.514 23.9534C63.8828 31.5956 61.8296 41.2909 57.2671 47.9065C54.0734 52.5831 53.7312 53.6096 55.1 54.7502C57.3812 56.5752 58.9781 55.2065 62.9703 48.0206C70.3843 34.3331 68.7875 15.969 59.2062 4.79087C56.6968 1.82525 56.5828 1.82525 54.8718 3.53619Z" fill="white"/>
</svg>
