<svg xmlns="http://www.w3.org/2000/svg" width="131" height="130" fill="none"><path fill="#0F62FE" d="m61.823.106-.54.093-.047 7.68c-.015 5.286-.093 7.697-.2 7.697-.835 0-5.61.803-7.465 1.251-2.565.618-8.221 2.612-8.87 3.122-.14.108-.124.247.108.633.154.263 1.143 1.917 2.179 3.678 1.035 1.778 1.947 3.215 2.009 3.215.062 0 .448-.155.865-.325 2.334-1.035 5.98-2.055 9.72-2.72 2.257-.386 9.489-.386 11.9 0 2.642.433 4.868 1.005 7.48 1.917 1.328.463 2.55.88 2.72.912.262.077.602-.433 2.286-3.4 1.098-1.917 2.025-3.601 2.056-3.756.061-.231-.294-.432-2.133-1.159-4.126-1.638-6.861-2.349-12.255-3.183l-1.7-.263L69.782.2l-.618-.108c-.742-.124-6.584-.124-7.34.015Z"/><path fill="#A44EEB" d="M78.76 1.482c-.046.046-.092 2.024-.092 4.389v4.296l.355.154c.186.078.897.294 1.577.464 3.075.803 6.258 2.024 9.844 3.755 5.13 2.488 10.013 5.919 14.356 10.122l1.653 1.576 3.756-2.178c2.071-1.19 3.801-2.21 3.832-2.241.124-.124-2.689-3.045-4.543-4.698-6.908-6.243-14.743-10.895-22.98-13.646-3.26-1.097-7.557-2.194-7.758-1.993Z"/><path fill="#F5CD8B" d="M127.623 44.682c-.063-.017-1.799.932-3.847 2.114l-3.721 2.148.044.385c.026.2.194.923.387 1.597.842 3.065 1.376 6.433 1.67 10.403.41 5.687-.119 11.632-1.588 17.494l-.538 2.22 3.764 2.163c2.066 1.198 3.815 2.187 3.857 2.199.169.045 1.292-3.851 1.797-6.284 1.953-9.104 2.064-18.215.328-26.724-.681-3.372-1.878-7.641-2.153-7.715Z"/><path fill="#FF2294" d="M3.377 85.555c.063.017 1.8-.931 3.847-2.114l3.72-2.148-.043-.385c-.026-.2-.194-.923-.387-1.597-.842-3.065-1.376-6.432-1.67-10.403-.41-5.687.12-11.631 1.588-17.494l.538-2.22-3.764-2.163c-2.066-1.198-3.815-2.187-3.857-2.198-.169-.045-1.292 3.85-1.797 6.284C-.4 60.22-.512 69.332 1.224 77.84c.68 3.373 1.879 7.642 2.153 7.715Z"/><path fill="#0F62FE" d="M49.306 2.115c-4.39 1.128-8.052 2.504-12.44 4.652-6.43 3.152-11.869 7.031-17.061 12.146-1.468 1.469-2.658 2.736-2.628 2.828.031.093 1.731 1.129 3.787 2.303l3.724 2.148 1.684-1.638c2.751-2.689 6.166-5.362 9.489-7.433 3.616-2.256 9.272-4.79 13.213-5.934 1.113-.325 2.287-.665 2.627-.758l.618-.185.047-4.373.03-4.358-.417.015c-.247 0-1.437.278-2.673.587Z"/><path fill="#000" d="M93.75 24.57c-.741 1.174-3.956 6.954-3.956 7.124 0 .108.371.479.804.803 1.422 1.082 3.863 3.323 5.192 4.776 5.378 5.872 8.994 13.336 10.154 21.032.154.927.293 1.793.324 1.885.046.155 1.051.201 4.373.201 2.38 0 4.358-.046 4.389-.123.047-.062-.062-1.02-.216-2.148-.572-4.111-1.839-8.732-3.384-12.255l-.773-1.778.324-.231c.619-.433 6.908-4.065 10.803-6.228 1.066-.587 1.993-1.128 2.07-1.19.232-.232-3.863-7.572-4.234-7.572-.155 0-2.72 1.437-8.19 4.605-2.767 1.607-5.085 2.89-5.177 2.859-.078-.031-.449-.448-.804-.943-1.545-2.117-4.018-4.852-6.614-7.294-1.113-1.05-4.605-3.863-4.79-3.863-.032 0-.17.154-.294.34Z"/><path fill="#F5CD8B" d="M114.302 68.469c-1.388-.055-8 .05-8.148.136-.093.054-.229.56-.294 1.098-.226 1.772-.946 5.007-1.539 6.884-2.397 7.593-7.053 14.457-13.138 19.309-.726.597-1.406 1.15-1.47 1.224-.111.117.35 1.01 2.012 3.888 1.19 2.061 2.22 3.751 2.302 3.739.076.009.852-.564 1.752-1.262 3.274-2.55 6.642-5.958 8.92-9.058l1.153-1.558.363.165c.684.32 6.974 3.95 10.795 6.241 1.041.63 1.973 1.163 2.066 1.199.316.085 4.626-7.132 4.44-7.453-.077-.134-2.604-1.637-8.083-4.791-2.775-1.592-5.045-2.958-5.065-3.054-.011-.082.164-.612.415-1.167 1.061-2.397 2.193-5.906 3.01-9.375.354-1.49 1.043-5.92.95-6.08-.015-.028-.219-.07-.441-.085Z"/><path fill="#0F62FE" d="M64.45 27.815c-3.245.448-5.98 3.322-6.274 6.583-.2 2.287.541 4.343 2.164 5.965 1.947 1.947 4.45 2.674 6.97 2.01 2.58-.665 4.79-2.844 5.47-5.394.448-1.67.046-4.173-.912-5.687-1.143-1.793-3.245-3.23-5.053-3.43-.495-.063-1.005-.124-1.128-.14-.124-.03-.68.015-1.237.093Z"/><path fill="#000" d="M90.413 42.728c-2.643.525-4.9 2.256-5.78 4.45-1.097 2.736-.788 5.24.912 7.434.819 1.05 1.576 1.653 2.766 2.21 2.055.973 4.296.957 6.398-.062 1.298-.619 2.04-1.252 2.812-2.396 2.89-4.25.897-9.875-4.002-11.374-.788-.232-2.504-.386-3.106-.262Z"/><path fill="#A44EEB" d="M93.75 24.57c-.741 1.174-3.956 6.954-3.956 7.124 0 .108.371.479.804.803 1.422 1.082 3.863 3.323 5.192 4.776 5.378 5.872 8.994 13.336 10.154 21.032.154.927.293 1.793.324 1.885.046.155 1.051.201 4.373.201 2.38 0 4.358-.046 4.389-.123.047-.062-.062-1.02-.216-2.148-.572-4.111-1.839-8.732-3.384-12.255l-.773-1.778.324-.231c.619-.433 6.908-4.065 10.803-6.228 1.066-.587 1.993-1.128 2.07-1.19.232-.232-3.863-7.572-4.234-7.572-.155 0-2.72 1.437-8.19 4.605-2.767 1.607-5.085 2.89-5.177 2.859-.078-.031-.449-.448-.804-.943-1.545-2.117-4.018-4.852-6.614-7.294-1.113-1.05-4.605-3.863-4.79-3.863-.032 0-.17.154-.294.34Z"/><path fill="#FF2294" d="M16.596 60.879c1.388.055 8-.051 8.148-.136.093-.054.229-.561.294-1.098.226-1.772.945-5.007 1.539-6.884 2.397-7.594 7.053-14.458 13.138-19.31.726-.597 1.406-1.15 1.47-1.223.111-.117-.35-1.01-2.012-3.888-1.19-2.061-2.22-3.751-2.302-3.74-.076-.008-.852.564-1.752 1.262-3.274 2.55-6.642 5.959-8.92 9.059l-1.153 1.557-.363-.165c-.684-.319-6.974-3.95-10.795-6.24-1.041-.63-1.974-1.163-2.066-1.2-.316-.084-4.626 7.133-4.44 7.454.077.134 2.604 1.637 8.083 4.79 2.775 1.593 5.045 2.959 5.064 3.055.012.082-.164.612-.414 1.167-1.06 2.397-2.193 5.906-3.01 9.375-.354 1.489-1.043 5.92-.95 6.08.015.027.218.07.44.085Z"/><path fill="#A44EEB" d="M90.413 42.728c-2.643.525-4.9 2.256-5.78 4.45-1.097 2.736-.788 5.24.912 7.434.819 1.05 1.576 1.653 2.766 2.21 2.055.973 4.296.957 6.398-.062 1.298-.619 2.04-1.252 2.812-2.396 2.89-4.25.897-9.875-4.002-11.374-.788-.232-2.504-.386-3.106-.262Z"/><path fill="#FF2294" d="M33.99 54.69c1.776 2.026 4.404 3.115 6.744 2.78 2.918-.417 4.931-1.936 5.982-4.506.5-1.234.644-2.192.53-3.5-.184-2.267-1.318-4.2-3.252-5.51-1.184-.815-2.104-1.14-3.48-1.238-5.126-.378-9 4.161-7.85 9.153.194.798.918 2.361 1.326 2.822Z"/><path fill="#F5CD8B" d="M96.908 74.657c-1.777-2.026-4.404-3.114-6.745-2.78-2.917.418-4.93 1.937-5.981 4.506-.5 1.235-.644 2.192-.53 3.5.184 2.268 1.318 4.2 3.252 5.51 1.184.816 2.104 1.141 3.48 1.239 5.126.377 9-4.162 7.85-9.154-.194-.798-.918-2.36-1.326-2.82Z"/><path fill="#EA8211" d="M63.446 87.883c-1.406.48-1.994.85-3.029 1.87-2.025 1.994-2.72 4.404-2.009 7.078 1.468 5.625 8.36 7.464 12.41 3.323 1.977-2.025 2.626-4.76 1.746-7.387-.464-1.422-.773-1.916-1.793-2.967a7.348 7.348 0 0 0-3.214-1.963c-1.113-.325-3.107-.31-4.111.046Z"/><path fill="#4B9E8B" d="M44.316 73.754c-1.118-.978-1.733-1.301-3.134-1.688-2.738-.756-5.174-.153-7.134 1.8-4.137 4.083-2.284 10.972 3.328 12.407 2.742.701 5.435-.104 7.27-2.18 1-1.113 1.273-1.628 1.673-3.037a7.348 7.348 0 0 0 .093-3.765c-.276-1.126-1.286-2.844-2.096-3.537Z"/><path fill="#EA8211" d="M48.657 103.708c-.294.525-1.252 2.194-2.117 3.709-.881 1.514-1.561 2.781-1.53 2.812.015.031.494.263 1.05.51 1.561.711 4.946 1.808 7.743 2.519 2.457.618 3.199.758 5.47 1.067.603.092 1.268.185 1.515.247l.417.093v15.098l.82.093c.432.061 2.363.077 4.28.046l3.477-.046.046-7.604.031-7.587.433-.093c.232-.047.772-.124 1.19-.17 2.766-.34 6.599-1.159 9.272-2.009 1.592-.495 5.208-1.916 5.548-2.179.263-.186.17-.371-1.066-2.488-.758-1.252-1.623-2.72-1.963-3.245-.325-.526-.587-1.02-.587-1.098 0-.077-.14-.262-.31-.417-.293-.263-.355-.263-1.73.278-2.844 1.098-4.265 1.53-6.722 2.056-2.999.618-4.065.726-8.083.726-4.141.015-5.424-.093-8.577-.742-2.302-.479-5.733-1.514-7.51-2.287l-.556-.247-.541.958Z"/><path fill="#4B9E8B" d="M23.217 68.859c-.602.008-2.526.013-4.27.02-1.752-.005-3.19.04-3.201.082-.02.029.02.56.083 1.165.165 1.707.907 5.187 1.69 7.965.693 2.437.944 3.149 1.812 5.27.221.569.473 1.19.543 1.436l.129.407-13.076 7.55.33.755c.162.406 1.115 2.087 2.1 3.73l1.778 2.989 6.608-3.762L24.33 92.7l.296.328c.156.178.494.608.742.946 1.678 2.226 4.303 5.135 6.376 7.025 1.224 1.132 4.264 3.552 4.661 3.716.292.134.406-.039 1.622-2.168.705-1.282 1.544-2.765 1.829-3.322.293-.544.59-1.019.657-1.057.067-.039.158-.252.206-.477.081-.385.05-.439-1.106-1.36-2.372-1.913-3.457-2.928-5.141-4.794-2.034-2.287-2.661-3.156-4.67-6.636-2.084-3.579-2.632-4.744-3.646-7.799-.737-2.233-1.555-5.722-1.775-7.647l-.064-.606-1.1.01Z"/><path fill="#EA8211" d="M104.398 105.933c-5.903 5.734-13.043 9.999-21.218 12.688-1.252.417-2.75.881-3.353 1.035l-1.082.278v8.778l.618-.108c.835-.139 2.566-.587 4.79-1.252 3.679-1.082 6.677-2.256 9.876-3.863 5.826-2.921 9.828-5.595 14.48-9.643 2.179-1.901 5.393-5.131 5.393-5.394 0-.077-.293-.309-.649-.51a842.426 842.426 0 0 0-3.632-2.101c-1.622-.943-3.044-1.716-3.168-1.716-.108.016-1.035.819-2.055 1.808Z"/><path fill="#4B9E8B" d="M18.727 110.65c3.172 3.237 6.194 5.721 10.249 8.448 5.944 3.991 12.023 6.762 19.05 8.701 2.005.538 3.697.935 3.762.862.065-.073.112-2.063.101-4.431l-.002-4.299-2.26-.64c-3.705-1.037-7.728-2.658-11.182-4.5-3.762-2.004-8.785-5.635-11.746-8.476a264.372 264.372 0 0 1-1.97-1.897l-.469-.442-3.81 2.146-3.79 2.153.222.353c.123.214.96 1.106 1.845 2.022Z"/></svg>