<svg xmlns="http://www.w3.org/2000/svg" width="699" height="193" fill="none"><path stroke="#000" stroke-width="2" d="M37.5 54 1 1"/><circle cx="44.5" cy="67" r="7" fill="#931D9D"/><circle cx="483.5" cy="81" r="13" fill="#931D9D"/><circle cx="670.5" cy="133" r="12.5" fill="#931D9D" stroke="#000"/><circle cx="44.5" cy="26" r="3" fill="#444"/><circle cx="56.5" cy="26" r="3" fill="#444"/><circle cx="68.5" cy="26" r="3" fill="#444"/><path stroke="#000" stroke-width="2" d="M58.997 70.855c2.016-7.552-2.137-15.482-9.644-18.048-7.839-2.68-16.366 1.502-19.046 9.34-2.68 7.839 1.502 16.366 9.34 19.046 7.534 2.576 15.704-1.186 18.707-8.442l158.363 46.708.566-1.918L58.997 70.855Zm-16.755 2.749a6.979 6.979 0 1 1 4.516-13.208 6.979 6.979 0 0 1-4.516 13.208Z"/><path fill="#931D9D" stroke="#000" stroke-width="2" d="M248.139 179.848c25.873 7.932 53.278-6.613 61.209-32.487 7.931-25.873-6.613-53.278-32.487-61.21-25.874-7.93-53.278 6.614-61.209 32.488-7.932 25.873 6.613 53.278 32.487 61.209Zm4.75-15.497c-17.314-5.308-27.048-23.647-21.74-40.962 5.308-17.314 23.647-27.048 40.961-21.74 17.315 5.308 27.048 23.647 21.741 40.962-5.308 17.314-23.647 27.048-40.962 21.74Z"/><mask id="a" width="48" height="48" x="459.5" y="57" fill="#000" maskUnits="userSpaceOnUse"><path fill="#fff" d="M459.5 57h48v48h-48z"/><path d="M506.5 81c0 12.703-10.297 23-23 23s-23-10.297-23-23 10.297-23 23-23 23 10.297 23 23Zm-36.969 0c0 7.715 6.254 13.97 13.969 13.97s13.969-6.255 13.969-13.97c0-7.715-6.254-13.97-13.969-13.97S469.531 73.286 469.531 81Z"/></mask><path stroke="#000" stroke-width="2" d="M506.5 81c0 12.703-10.297 23-23 23s-23-10.297-23-23 10.297-23 23-23 23 10.297 23 23Zm-36.969 0c0 7.715 6.254 13.97 13.969 13.97s13.969-6.255 13.969-13.97c0-7.715-6.254-13.97-13.969-13.97S469.531 73.286 469.531 81Z" mask="url(#a)"/><circle cx="262.5" cy="133" r="23.5" fill="#931D9D" stroke="#000"/><path fill="#931D9D" stroke="#000" stroke-width="2" d="M674.877 108.386c-13.233-2.353-25.883 6.17-28.776 19.162L506.766 89.036l-.532 1.928 139.509 38.56c-1.871 13.262 7.087 25.726 20.381 28.09 13.594 2.417 26.573-6.644 28.99-20.238 2.417-13.594-6.644-26.573-20.237-28.99Zm-7.48 42.064c-9.637-1.714-16.06-10.915-14.347-20.553 1.714-9.637 10.915-16.061 20.553-14.347 9.637 1.714 16.061 10.915 14.347 20.553-1.713 9.637-10.915 16.06-20.553 14.347Z"/><path stroke="#000" stroke-width="2" d="M459.505 88.018c3.741 12.825 16.985 20.504 30.059 17.235 13.395-3.349 21.538-16.922 18.189-30.317s-16.922-21.539-30.317-18.19c-13.066 3.267-21.135 16.263-18.415 29.331l-149.751 35.45.46 1.946 149.775-35.455Zm27.321 6.284c-7.347 1.837-14.792-2.63-16.628-9.976-1.837-7.347 2.629-14.791 9.976-16.628 7.347-1.837 14.791 2.63 16.628 9.976 1.837 7.347-2.629 14.791-9.976 16.628Z"/></svg>